<svg xmlns="http://www.w3.org/2000/svg" width="81.835" height="41.64" viewBox="0 0 21.652 11.017"><g fill="navy" stroke="#dfb523" stroke-width=".265" stroke-linecap="round" stroke-dasharray="1.05999999,.265"><path d="M5.43 1.41c-.258.243-.5.502-.749.757-.147.151-.284.312-.43.463a5.29 5.29 0 01-.42.404c-.12.109-.232.223-.348.335-.117.119-.233.236-.363.342-.134.106-.277.199-.401.315-.134.134-.28.254-.423.379-.151.12-.304.237-.452.36-.132.108-.27.21-.396.324-.084.077-.159.162-.24.24-.325.352-.97.861-1.07.286-.02-.134.016-.264.04-.394.024-.16.073-.309.141-.455.056-.121.12-.239.169-.363.051-.126.103-.252.163-.374.049-.114.108-.222.163-.333.05-.111.117-.214.187-.314.083-.106.16-.215.24-.323.073-.09.134-.19.205-.282a3.48 3.48 0 01.24-.306c.073-.085.145-.171.225-.25.013-.013.023-.031.04-.041 1.087-.654 1.28-.723.1-.066-.019.011.036-.027.053-.041l.1-.09c.31-.283.713-.435 1.066-.657.261-.165-.536.31-.804.463l.047-.03c.56.286.638-.448 1.006-.563.062-.02.121-.027.181-.053.12-.035.24-.076.363-.1.164-.01.32-.056.482-.078.144-.014.278-.014.419-.05.12-.028.243-.033.365-.037.11-.038.224-.053.34-.061.137.006.267-.035.401-.055.146-.027.201-.021.318.075.08.085.152.18.222.273.059.09.114.183.16.28.04.108.083.214.133.318.044.118.09.235.135.353.04.132.08.263.11.397.033.144.093.278.126.423.035.144.03.292.047.437.029.143.045.287.054.432.007.15.008.3.009.45-.003.16-.057.31-.116.456a2.387 2.387 0 01-.277.522c-.09.12-.164.248-.248.37-.087.12-.186.227-.273.346-.079.125-.18.232-.275.344-.084.092-.18.174-.268.262-.074.064-.136.142-.218.197l-.033.025-.926.373h0l.031-.028c.082-.071-.01.002.08-.052.056-.034.094-.095.141-.138.098-.077.181-.172.273-.257.127-.11-.016.022.095-.108.062-.074.146-.132.184-.225.064-.077.113-.17.183-.242.016-.016.037-.026.052-.042.016-.018.026-.04.04-.059.15-.19-.066.087.083-.122.014-.018.033-.032.045-.051.04-.065.057-.145.122-.194.107-.16.224-.318.285-.504.059-.137.116-.27.131-.42 0-.149 0-.297-.006-.446a2.566 2.566 0 00-.05-.422c-.025-.143-.01-.29-.043-.433a1.435 1.435 0 00-.061-.225c-.006-.015-.053-.12-.057-.133-.006-.021-.006-.043-.01-.065-.025-.13-.067-.256-.102-.383-.043-.116-.09-.23-.132-.346a3.733 3.733 0 01-.134-.318 2.127 2.127 0 00-.148-.262c-.065-.085-.128-.175-.207-.248-.088-.05-.176-.028-.272-.01a2.685 2.685 0 01-.406.05c-.115.015-.226.047-.342.056-.12.008-.24.022-.356.05-.14.025-.282.02-.422.045-.159.027-.317.06-.477.085-.12.033-.24.065-.357.108-.37.103-.958.529.532-.356-.362.194.079-.043-.951.553-.267.154.53-.311.797-.466.018-.01-.037.023-.055.036-.127.095.026-.005-.11.08-.29.312-.67.434-1.049.677-.246.157 1.135-.651.754-.446-.069.087-.156.16-.228.245-.078.105-.171.192-.24.302l-.032.046c-.012.013-.026.026-.037.04-.036.05-.063.106-.099.155-.01.015-.025.027-.038.04-.074.111-.155.22-.242.321-.066.1-.136.193-.194.297-.046.117-.117.22-.162.337-.058.12-.112.242-.168.364-.039.13-.102.25-.166.369-.027.068-.074.13-.097.198-.027.075-.024.16-.053.235-.02.123-.062.242-.053.368.002.027.002.064.012.09.005.012.03.025.02.031-.274.172-.562.32-.84.483-.011.007.025-.004.036-.01.014-.007.025-.02.037-.029.07-.09.16-.163.24-.245.117-.129.258-.227.395-.333.145-.125.292-.25.452-.356.136-.13.283-.249.426-.37.106-.139.257-.227.396-.33.13-.105.262-.203.364-.339.174-.133-.046.042.114-.108.018-.017.042-.028.06-.045.06-.057.111-.127.172-.184.197-.146-.056.048.132-.117.022-.02.05-.033.072-.052.078-.07.148-.151.222-.225.145-.154.29-.307.433-.463.276-.3-.106.11.206-.205.182-.184.348-.384.543-.555l.916-.38z"/><path d="M3.87 4.897a26.921 26.921 0 001.888.056H8.369c.108-.01.219.011.326 0 .106-.011.215-.047.318-.069.215-.028.428-.068.642-.096.099-.024.204-.01.303-.027.084-.016.172-.056.255-.08.161-.03.316-.081.478-.106.126-.074.265-.114.4-.168-.13.053.274-.16.157-.092-1.387.8-.968.586-.689.38.09-.077.157-.175.216-.277.066-.102.091-.22.145-.328.056-.112.11-.226.145-.347.054-.138.07-.284.104-.426.048-.147.103-.292.147-.44.034-.158.098-.307.152-.459.06-.14.075-.291.128-.433a3.63 3.63 0 00.14-.462c.028-.147.034-.297.037-.446.005-.129-.063-.215-.138-.31-.065-.072-.153-.108-.238-.05l-.039.02c.262-.145.521-.296.786-.437.023-.012-.04.034-.06.052a1.693 1.693 0 00-.153.153c-.125.15-.244.307-.367.46-.182.221-.346.457-.522.683-.237.3-.478.6-.704.91-.207.27-.396.553-.585.837-.21.3-.418.601-.6.92-.188.312-.394.614-.58.928-.164.284-.332.567-.503.847a8.597 8.597 0 00-.404.757c-.105.243-.22.48-.364.703-.122.184-.202.39-.319.576-.125.176-.254.346-.376.523-.108.143-.22.281-.316.432-.091.158-.184.314-.291.462-.107.163-.226.31-.373.44-.372.314-.798.515-1.226.763-.117.04-.225.095-.347.119-.126.019-.253.019-.38.02-.083-.006-.18-.01-.26-.038-.01-.003-.115-.062-.127-.07a2.682 2.682 0 00-.452-.165c-.12-.04-.223-.119-.338-.169-.055-.023-.113-.042-.168-.064a1.204 1.204 0 01-.386-.204c-.116-.074-.145-.21-.18-.333a1.785 1.785 0 01-.072-.443c-.015-.162 0-.323.042-.48.062-.195.152-.379.243-.561.086-.207.223-.385.366-.555.157-.198.323-.39.503-.567A12.477 12.477 0 014.18 6.193c.527-.384 1.105-.682 1.672-1 .292-.128.576-.276.874-.39.286-.097.579-.178.855-.303.274-.13.569-.203.853-.306.268-.08.526-.187.798-.253.236-.049.472-.089.712-.11.208.013.398-.061.598-.105.166-.026.338-.055.505-.03.137.012.226.108.327.19.128.09.238.199.34.318.106.087.217.175.34.234.117.045.243.045.366.048.133 0 .267.02.39-.04l-.789.61h0c-.135.023-.273.015-.41.013a.924.924 0 01-.39-.084 1.877 1.877 0 01-.36-.266 1.935 1.935 0 00-.331-.303c-.092-.072-.17-.142-.294-.141a2.098 2.098 0 00-.486.054c-.2.049-.397.097-.604.094-.237.025-.47.069-.702.122-.268.075-.527.175-.792.258a8.314 8.314 0 00-.85.311c-.28.112-.57.199-.856.302-.292.123-.58.261-.868.395 1.483-.88.34-.221.024.021-.26.168-.506.352-.749.543-.107.08-.203.169-.305.254-.094.079-.089.072-.19.143-.032.027-.062.058-.094.087a4.007 4.007 0 00-.505.556c-.141.165-.294.33-.376.533a4.17 4.17 0 00-.248.547c-.059.14-.066.297-.058.447.008.142.018.285.062.422.032.106.045.217.15.28.111.08.238.135.368.18.17.07.328.162.501.226.16.05.316.104.465.181a.725.725 0 00.358.066c.123-.003.247-.006.366-.04.113-.036.225-.083.33-.138-.263.153-.526.308-.79.46a.445.445 0 01.062-.042c.022-.013.048-.021.07-.035.092-.06.028-.037.118-.104.02-.016.046-.027.068-.04.09-.081.192-.15.265-.249.021-.027.036-.06.056-.088.019-.029.04-.056.06-.084.112-.142.207-.294.295-.451.086-.166.202-.296.312-.444.07-.082.117-.173.18-.26.227-.312-.098.14.138-.162.024-.03.042-.063.063-.095.127-.182.207-.386.318-.578.153-.214.273-.445.371-.69.128-.259.25-.52.402-.767.174-.278.34-.561.505-.845.182-.317.386-.619.58-.928.062-.108.117-.22.183-.325.032-.05.07-.095.104-.144.106-.151.198-.311.311-.457.19-.283.371-.572.583-.84.222-.313.465-.611.703-.912.176-.226.34-.46.517-.684.125-.152.245-.307.363-.464.034-.037.06-.08.094-.117.016-.017.038-.028.055-.044.297-.268.635-.526 1.028-.621.123 0 .223.05.302.147.088.111.165.222.17.37-.002.154-.006.31-.03.462-.03.164-.081.32-.132.479-.019.044-.045.086-.057.132-.027.099-.022.207-.07.3-.033.073-.051.147-.08.22-.018.05-.047.094-.063.143-.008.028-.01.057-.015.085-.034.152-.096.296-.144.445-.057.133-.037.289-.106.42a1.71 1.71 0 01-.135.37c-.02.035-.049.066-.064.105-.028.072-.021.158-.082.217a.96.96 0 01-.203.312c-.053.066-.03.05-.101.091-.334.197-.703.444-1.073.617a5.103 5.103 0 01-.411.15c-.159.033-.315.078-.472.115a2.984 2.984 0 01-.565.095c-.213.033-.426.061-.638.101a2.478 2.478 0 01-.656.052H4.953c-.243 0-.486-.002-.728-.01a61.212 61.212 0 01-1.162-.051l.807-.58z"/><path d="M11.635 4.531c.19-.276.373-.556.591-.811.3-.296.946-.954 1.214-.471.066.12.068.26.09.393.017.117.066.186.178.221.12.025.246.023.369.023l.442-.002.428-.001h.44l.628.001h1.57a526.24 526.24 0 011.341 0h.612c.147-.004.303.021.436-.054.898-.504-2.648 1.505.295-.167.05-.047.12-.047.179-.074.054-.025.132-.084.187-.116.078-.03.145-.08.224-.11.027-.01.057-.014.084-.026.055-.023.107-.055.161-.082.31-.165.777-.434-.631.368-.143.081.125-.08.154-.101l.925-.375h0a.751.751 0 01-.15.116c-.357.207-.707.43-1.076.613-.156.074-.318.135-.466.224-.12.07-.247.123-.373.184.267-.156.533-.312.8-.466a.584.584 0 01-.047.03c-.317.185-.623.39-.95.555-.041.02-.06.026-.103.042-.15.031-.301.024-.454.023h-4.152l-.441.001-.427.001c-.148 0-.296.003-.444.001-.132-.002-.267-.004-.392-.054a.4.4 0 01-.226-.305c-.026-.122-.018-.253-.077-.366-.006-.012-.01-.026-.018-.036-.01-.01-.047-.016-.035-.024.262-.172.539-.32.806-.483.075-.045-.264.127-.186.13-.058.066-.12.128-.175.197-.152.193-.278.404-.423.602l-.908.4z"/></g></svg>